<?xml version="1.0" encoding="UTF-8" standalone="no"?>
<!-- Generator: Adobe Illustrator 25.0.0, SVG Export Plug-In . SVG Version: 6.00 Build 0)  -->

<svg
   version="1.1"
   x="0px"
   y="0px"
   viewBox="0 0 169.80148 145.9263"
   xml:space="preserve"
   id="svg3"
   width="169.80148"
   height="145.9263"
   sodipodi:docname="logo2.svg"
   inkscape:version="1.3.2 (091e20e, 2023-11-25, custom)"
   xmlns:inkscape="http://www.inkscape.org/namespaces/inkscape"
   xmlns:sodipodi="http://sodipodi.sourceforge.net/DTD/sodipodi-0.dtd"
   xmlns="http://www.w3.org/2000/svg"
   xmlns:svg="http://www.w3.org/2000/svg"><sodipodi:namedview
   id="namedview1"
   pagecolor="#ffffff"
   bordercolor="#000000"
   borderopacity="0.25"
   inkscape:showpageshadow="2"
   inkscape:pageopacity="0.0"
   inkscape:pagecheckerboard="0"
   inkscape:deskcolor="#d1d1d1"
   inkscape:zoom="3.3568611"
   inkscape:cx="84.900742"
   inkscape:cy="72.835899"
   inkscape:window-width="1366"
   inkscape:window-height="705"
   inkscape:window-x="-8"
   inkscape:window-y="-8"
   inkscape:window-maximized="1"
   inkscape:current-layer="svg3" /><defs
   id="defs3" />
<style
   type="text/css"
   id="style1">
	.st0{fill:#F4F2ED;}
	.st1{fill:#292B30;}
	.st2{font-family:'Montserrat-Light';}
	.st3{font-size:14.3859px;}
	.st4{letter-spacing:2;}
</style>

<g
   id="OBJECTS"
   transform="translate(-165,-191.5)">
	<g
   id="g3">
		<path
   class="st1"
   d="m 289.3,240.6 c -1.4,1.9 -3.1,3.4 -5.3,4.7 -2.2,1.3 -4.9,2.3 -8.2,3.1 -1.4,0.3 -3.2,0.6 -5.3,0.7 -2.1,0.2 -4.2,0.3 -6.4,0.4 -2.1,0.1 -4,0.2 -5.6,0.2 h -0.7 v 2.6 h 5.2 c 1.1,0 2.2,0 3.3,0.1 1.1,0.1 2.5,0.1 4.1,0.2 3.3,0.2 6.1,0.8 8.6,1.8 2.5,1 4.5,2.2 6.3,3.8 2,1.9 3.8,4.6 5.6,8.3 1.8,3.7 3.1,7.3 4,10.8 h 2 v -51.5 h -2 c -0.7,3.1 -1.4,5.8 -2.2,8.3 -1,2.5 -2.1,4.7 -3.4,6.5 z"
   id="path1" />
		<path
   class="st1"
   d="m 177.8,263.5 c -8.5,6.5 -12.8,14.1 -12.8,22.9 0,6.7 2.5,12.1 7.6,16.1 5.1,4.1 11.1,6.1 18.2,6.1 5.5,0 11.7,-1.5 18.7,-4.6 6.7,-2.9 14,-7.2 22.1,-12.8 v -6.8 c -6.1,4.8 -11.6,8.5 -16.6,11 -5.3,2.6 -9.9,3.9 -13.9,3.9 -4.5,0 -8.1,-1.6 -10.9,-4.9 -2.8,-3.3 -4.2,-7.6 -4.2,-12.9 0,-13.5 10.9,-24.6 32.8,-33.5 l 12.8,-5.2 v -6 l -18.6,7.6 c -14.9,6.3 -26.6,12.6 -35.2,19.1 z"
   id="path2" />
		<path
   class="st1"
   d="m 323.6,269.3 c -6.2,0 -11.3,5.1 -11.3,11.3 0,6.2 5.1,11.3 11.3,11.3 1.5,0 2.9,-0.3 4.3,-0.8 -0.7,1.3 -1.4,2.5 -2.3,3.6 -3.5,4.4 -8.4,7.5 -13.9,8.4 -3.4,0.6 -39.5,0.5 -42.9,0 -3.1,-0.5 -7.1,-1.3 -9.5,-3.4 -3.5,-2.9 -3.8,-7.4 -4.1,-11.6 -0.3,-5.5 -0.3,-11.1 -0.3,-16.6 0,-0.7 0,-1.5 0,-2.2 v -30.8 c 0,-1.9 0,-3.7 -0.1,-5.4 v 0 c 0,-4.6 -0.1,-16.4 0.1,-21 0.2,-4.2 0.5,-8.7 4.1,-11.6 2.5,-2 6.4,-2.9 9.5,-3.4 3.4,-0.6 39.5,-0.6 42.9,0 5.5,0.9 10.5,4 13.9,8.4 0.9,1.1 1.7,2.3 2.3,3.6 -1.3,-0.5 -2.8,-0.8 -4.3,-0.8 -6.2,0 -11.3,5.1 -11.3,11.3 0,6.2 5.1,11.3 11.3,11.3 6.2,0 11.3,-5.1 11.3,-11.3 0,-1 -0.2,-1.9 -0.4,-2.8 -0.2,-4.2 -1.6,-8.2 -3.9,-11.8 -3,-4.7 -7.4,-8.4 -12.5,-10.6 -5.4,-2.3 -43,-2.9 -48.8,-2.9 -5.9,0 -13.1,1.2 -18.4,3.7 -2.5,1.2 -4.8,2.7 -6.8,4.6 -1.1,-0.9 -2.3,-1.8 -3.6,-2.6 -6,-3.8 -13.7,-5.7 -22.8,-5.7 -8.1,0 -15.5,1.9 -22.3,5.7 -5.1,2.9 -9.7,6.8 -14.1,11.8 -2.1,1.7 -3.5,4.3 -3.7,7.3 -0.3,5.6 3.9,10.4 9.6,10.8 5.6,0.3 10.4,-3.9 10.8,-9.6 0.3,-5.6 -3.9,-10.4 -9.6,-10.8 -0.1,0 -0.2,0 -0.3,0 1.2,-1 2.5,-2 3.8,-2.9 10.6,-7 23.9,-7.1 34.3,0.3 4,2.9 6.6,6.6 7.7,11 1.1,4.5 1.6,11.3 1.6,20.6 0,0 0,44.8 0,44.8 0,10.4 6.2,20.1 15.6,24.5 5.4,2.5 12.6,3.7 18.4,3.7 5.8,0 43.3,-0.7 48.8,-2.9 5.1,-2.1 9.5,-5.9 12.5,-10.6 2.2,-3.5 3.7,-7.6 3.9,-11.8 0.2,-0.9 0.4,-1.8 0.4,-2.8 0.1,-6.2 -4.9,-11.3 -11.2,-11.3 z"
   id="path3" />
	</g>
</g>
<g
   id="TEXTS"
   transform="translate(-161,-191.5)">
	<text
   class="st1 st2 st3 st4"
   id="text3"
   x="200.60542"
   y="337.2226">ELLA GEMS</text>
</g>
</svg>
