<svg width="32" height="32" viewBox="0 0 32 32" fill="none" xmlns="http://www.w3.org/2000/svg">
<path d="M18.8785 11.6268C18.8785 13.2298 17.5789 14.5294 15.9759 14.5294C14.3729 14.5294 13.0733 13.2298 13.0733 11.6268C13.0733 10.0237 14.3729 8.72421 15.9759 8.72421C17.5789 8.72421 18.8785 10.0237 18.8785 11.6268Z" stroke="black" stroke-width="2.11484" stroke-linejoin="round"/>
<path d="M26.1349 11.4195C26.1349 14.7347 23.6707 18.8783 20.9719 21.6447C19.1965 23.4645 17.3196 24.6884 15.9759 24.6884C14.6322 24.6884 12.7553 23.4645 10.9799 21.6447C8.28112 18.8783 5.81689 14.7347 5.81689 11.4195C5.81689 5.92329 10.3652 1.46777 15.9759 1.46777C21.5866 1.46777 26.1349 5.92329 26.1349 11.4195Z" stroke="black" stroke-width="2.11484" stroke-linejoin="round"/>
<path d="M20.5533 22.0605C25.5091 22.6788 29.0372 24.2718 29.0372 26.1395C29.0372 28.5441 23.1894 30.4934 15.9756 30.4934C8.76193 30.4934 2.91406 28.5441 2.91406 26.1395C2.91406 24.2718 6.44216 22.6788 11.398 22.0605" stroke="black" stroke-width="2.11484" stroke-linejoin="round"/>
</svg>
