<svg width="27" height="27" viewBox="0 0 27 27" fill="none" xmlns="http://www.w3.org/2000/svg">
<g clip-path="url(#clip0_117_672)">
<path d="M24.07 10.88H23.14V10.04C23.14 4.5 18.68 0 13.19 0H13.1C7.57 0 3.07 4.5 3.07 10.03V10.87H2.32C1.06 10.87 0 11.93 0 13.19V17.84C0 19.1 1.06 20.16 2.32 20.16H3.33L3.35 20.22C3.64 21.1 4.54 21.74 5.48 21.74C6.74 21.74 7.8 20.68 7.8 19.42V11.7C7.8 10.44 6.74 9.38 5.48 9.38C5.28 9.38 4.97 9.38 4.77 9.48L4.64 9.52V9.43C4.98 4.96 8.7 1.46 13.11 1.46C17.52 1.46 21.24 4.96 21.58 9.4V9.51H21.55C21.4 9.36 21.11 9.36 20.91 9.36C19.65 9.36 18.59 10.42 18.59 11.68V19.31C18.59 20.57 19.65 21.63 20.91 21.63C21.19 21.63 21.42 21.63 21.64 21.52H21.67V22.47C21.67 22.92 21.28 23.31 20.83 23.31H15.26L15.24 23.25C14.95 22.37 14.05 21.73 13.11 21.73C11.85 21.73 10.79 22.79 10.79 24.05C10.79 25.31 11.85 26.37 13.11 26.37C14.05 26.37 14.94 25.73 15.24 24.85L15.26 24.79H20.83C22.09 24.79 23.15 23.73 23.15 22.47V20.05H23.99C25.25 20.05 26.31 18.99 26.31 17.73V13.17C26.31 11.94 25.27 10.85 24.08 10.85L24.07 10.88ZM24.82 13.28V17.84C24.82 18.29 24.43 18.68 23.98 18.68H23.14V12.44H23.98C24.43 12.44 24.82 12.83 24.82 13.28ZM21.75 11.61V19.33C21.75 19.78 21.36 20.17 20.91 20.17C20.46 20.17 20.07 19.78 20.07 19.33V11.61C20.07 11.16 20.46 10.77 20.91 10.77C21.36 10.77 21.75 11.16 21.75 11.61ZM4.63 19.33V11.61C4.63 11.16 5.02 10.77 5.47 10.77C5.92 10.77 6.31 11.16 6.31 11.61V19.33C6.31 19.78 5.92 20.17 5.47 20.17C5.02 20.17 4.63 19.78 4.63 19.33ZM3.15 12.35V18.59H2.31C1.86 18.59 1.47 18.2 1.47 17.75V13.19C1.47 12.75 1.78 12.42 2.22 12.35H3.15ZM14.03 23.98C14.03 24.56 13.59 24.82 13.19 24.82C12.74 24.82 12.35 24.43 12.35 23.98C12.35 23.53 12.74 23.14 13.19 23.14C13.64 23.14 14.03 23.53 14.03 23.98Z" fill="black"/>
</g>
<defs>
<clipPath id="clip0_117_672">
<rect width="26.3" height="26.38" fill="white"/>
</clipPath>
</defs>
</svg>
