<svg width="37" height="33" viewBox="0 0 37 33" fill="none" xmlns="http://www.w3.org/2000/svg">
<g clip-path="url(#clip0_117_669)">
<path d="M34.895 23.5452C34.2794 22.3024 32.5371 21.4428 30.5625 22.0584L29.0757 22.5579L29.8191 21.6868C31.8053 19.4566 32.9204 16.6109 32.9204 13.6374C32.9204 8.30599 29.5752 3.47405 24.4993 1.74338C23.2565 1.24392 21.8975 1.12777 20.6547 1H20.4108C16.5661 1 12.8492 2.85844 10.503 5.83194C7.52946 9.54882 6.91386 14.3808 8.7723 18.5971L9.01622 19.0966H8.40061C7.65723 18.9688 8.087 18.8294 7.45977 18.8526C6.21694 18.8875 6.2634 19.2243 5.14834 19.9677L3.09244 21.8261C2.2213 22.3256 1.84961 23.3129 1.84961 24.4279C1.84961 25.4152 2.2213 26.4142 2.72075 27.5292C3.33636 28.6443 2.80206 29.5154 3.66159 30.131C4.64888 30.8744 5.52003 31.2461 6.39117 31.1183L7.83146 30.7466H7.04162C7.54108 30.7466 8.28446 30.8744 9.02783 30.9906C9.77121 31.1067 10.5146 31.3623 11.258 31.6062L11.5019 31.7339C11.7458 31.8617 12.1175 31.8617 12.373 31.9779C14.4754 32.5935 17.4489 33.4646 19.8068 32.7212L33.1875 27.3898C34.0587 27.0181 34.6743 26.4025 34.9182 25.7753C35.2899 25.0319 35.2899 24.2886 34.9182 23.5452H34.895ZM11.3509 6.57532C13.4532 3.84574 16.7984 2.24283 20.3992 2.24283H20.6431C21.8859 2.24283 23.001 2.48675 24.116 2.85844C28.7041 4.47296 31.7937 8.80544 31.7937 13.7652C31.7937 18.7249 28.5763 22.9296 23.8605 24.4163H23.7327L22.3738 24.9158L22.246 24.6719C21.6304 23.1851 20.3875 22.314 18.4013 22.0701C15.4278 21.5706 13.3255 20.8272 11.3393 20.0838L10.7237 19.8399V19.7122C8.12184 15.6236 8.36576 10.42 11.3393 6.57532H11.3509ZM33.8961 25.2875C33.7683 25.6592 33.3966 26.0309 32.9088 26.2748L19.6558 31.6062C19.1563 31.7339 18.6685 31.8501 18.169 31.8501C16.9262 31.8501 15.1955 31.6062 12.9654 30.8628C12.5937 30.735 12.222 30.6189 11.7226 30.4911C10.8514 30.2472 10.108 29.9917 9.36467 29.8755C8.37738 29.6316 8.53999 29.376 7.68046 29.6316L6.24017 30.0033C5.74072 30.131 5.12511 29.7593 4.5095 29.2599C3.89389 28.7604 4.31204 27.9009 3.94035 26.902C3.4409 26.0309 3.19698 25.0436 3.19698 24.3002C3.19698 23.5568 3.31313 22.918 3.68482 22.7902L3.8242 22.6973C4.19589 22.4534 4.21912 22.4301 5.8801 21.0711L6.00787 20.9898C7.12293 20.3742 6.82093 20.0722 7.80823 20.0722H7.936L9.50406 20.6878C10.0035 20.8156 10.4914 21.0595 10.9908 21.3034C12.8492 22.0468 15.0794 22.918 18.2968 23.4058C20.3992 23.7775 21.1425 24.5209 21.3981 25.1365C21.6536 25.7521 21.5258 26.2515 21.5258 26.3793C21.3981 26.751 21.2819 26.751 20.9102 26.8788C20.5385 27.0065 19.9229 27.0065 19.0518 27.0065L12.977 26.5071C12.8492 26.5071 12.6053 26.5071 12.6053 26.6348C12.4776 26.7626 12.4776 26.8788 12.4776 27.0065C12.4776 27.1343 12.4776 27.3782 12.6053 27.3782C12.7331 27.506 12.8492 27.6221 13.1048 27.6221L19.0518 27.8661C20.0391 27.8661 20.6663 27.9938 21.2819 27.7383C22.1531 27.4944 22.5247 26.9949 22.6409 26.2515V26.1238L31.062 23.278C32.6765 22.7786 33.536 23.4058 34.0355 24.1492C34.0355 24.5209 34.0355 24.8926 33.9077 25.2642L33.8961 25.2875Z" fill="black" stroke="black" stroke-width="0.6"/>
<path d="M17.1701 17.2265C18.1574 17.5982 19.1563 17.8421 19.8996 17.9699H20.1436V19.5844C20.1436 19.8283 20.2713 19.9561 20.3875 20.0839C20.6314 20.2116 20.8869 20.2116 21.0031 20.0839C21.1192 19.9561 21.247 19.8399 21.247 19.5844V17.8537L21.4909 17.726C22.606 17.3543 23.1055 16.6109 23.3494 16.367C23.8488 15.6236 23.7211 14.6363 23.2216 14.0091C22.7222 13.3819 21.8626 12.894 20.8637 12.894H20.6198C19.6325 12.894 18.8891 12.7663 18.5174 12.3946C18.2735 12.1506 18.1457 11.779 18.3897 11.4073C18.5174 11.1633 18.7614 10.6639 19.6325 10.5361C20.2481 10.4084 21.247 10.4084 22.8499 11.1517C23.0938 11.2795 23.3494 11.2795 23.4655 11.1517C23.7094 11.024 23.7094 10.78 23.7094 10.5361C23.7094 10.2922 23.5817 10.1644 23.3378 10.0367C22.7222 9.79275 22.0949 9.53721 21.4793 9.42106H21.2354V7.56262C21.2354 7.43485 21.2354 7.19093 21.1076 7.06317C20.9799 6.9354 20.8637 6.81925 20.7359 6.9354C20.6082 6.9354 20.3643 7.06317 20.3643 7.06317C20.2365 7.19093 20.2365 7.30709 20.2365 7.43485V9.29329H19.4931C18.5058 9.53721 17.7624 10.0367 17.3908 10.9078C17.0191 11.6512 17.1468 12.6385 17.7624 13.2657C18.3781 13.8929 19.377 14.253 20.6082 14.253H20.8521C21.8394 14.253 22.2111 14.6247 22.4666 14.8686C22.7105 15.2403 22.7105 15.612 22.4666 15.9837C22.2227 16.3554 21.851 16.727 21.2238 16.8548C20.6082 16.9826 19.4931 16.9826 17.6347 16.2392C17.5069 16.2392 17.3908 16.1114 17.3908 16.1114C17.263 16.1114 17.1468 16.1114 17.1468 16.2392C16.7751 16.367 16.6474 16.6109 16.7751 16.8548C16.7751 16.9826 16.9029 17.2265 17.1468 17.2265H17.1701Z" fill="black" stroke="black" stroke-width="0.6"/>
</g>
<defs>
<clipPath id="clip0_117_669">
<rect width="37" height="33" fill="white"/>
</clipPath>
</defs>
</svg>
