<svg width="220" height="220" viewBox="0 0 220 220" fill="none" xmlns="http://www.w3.org/2000/svg">
<path d="M84.3399 148.609C77.0185 149.898 67.6637 152.168 60.2526 158.334C56.5373 161.43 54.6848 165.139 55.0439 168.782C55.3878 172.277 57.7794 175.491 61.7781 177.834C66.064 180.357 70.789 182.268 75.7727 183.493C86.572 186.11 97.7306 187.443 108.943 187.457C117.311 187.454 125.656 186.704 133.846 185.218C141.787 183.783 150.977 181.617 158.888 176.436C162.711 173.934 164.96 170.858 165.394 167.54C165.831 164.191 164.415 160.72 161.294 157.494C156.939 152.993 151.182 149.905 143.692 148.054C140.89 147.359 137.978 146.895 135.163 146.444C134.237 146.295 133.313 146.148 132.388 145.991C133.521 144.46 134.659 142.934 135.802 141.415C138.69 137.561 141.677 133.575 144.426 129.558C152.646 117.546 162.328 101.384 164.241 82.8774C166.257 63.3739 159.171 49.4123 142.576 40.1969C131.066 33.8044 118.222 31.6545 104.407 33.8108C83.5195 37.069 69.8696 47.6617 63.8362 65.2951C60.2396 75.8094 61.556 86.4413 63.1077 94.5301C65.6487 107.802 71.39 121.083 81.7252 137.593C83.3366 140.167 85.0391 142.622 86.8421 145.221C87.4701 146.124 88.0995 147.035 88.7304 147.954L87.9292 148.066C86.6776 148.241 85.5018 148.405 84.3399 148.609ZM111.194 155.071C110.713 155.61 110.23 156.153 109.743 156.7C100.026 149.512 93.8052 140.322 88.5316 131.442C81.7449 120.014 74.4919 106.263 72.1592 90.9081C70.1646 77.7667 71.6573 68.066 77.0001 59.4445C83.6374 48.735 96.8313 41.9717 112.294 41.3519C113.051 41.3216 113.804 41.3063 114.552 41.3063C128.78 41.3063 141.361 46.7576 148.522 56.1183C153.081 62.0793 155.093 69.026 154.86 77.9785C154.598 87.947 151.42 98.2244 144.86 110.32C137.457 123.973 127.789 137.123 115.305 150.519C113.912 152.013 112.592 153.498 111.194 155.071ZM92.2752 153.532C93.0547 153.563 93.7972 153.829 94.3734 154.286C98.7721 158.656 104.219 162.138 110.332 164.492C113.008 165.515 115.39 164.888 117.408 162.628L118.783 161.083C120.645 158.987 122.571 156.819 124.577 154.784C125.171 154.143 126.025 153.723 126.965 153.61C133.841 154.095 141.071 155.006 147.351 158.362C149.998 159.826 152.37 161.635 154.383 163.726C154.82 164.102 155.163 164.553 155.393 165.049C155.622 165.545 155.733 166.076 155.718 166.611C155.612 167.155 155.38 167.674 155.035 168.138C154.691 168.601 154.241 168.999 153.714 169.308C151.335 170.95 148.727 172.325 145.95 173.399C135.527 177.413 123.513 179.413 108.141 179.693C96.9893 179.336 86.1253 178.765 75.8156 175.753C72.4549 174.802 69.2559 173.466 66.3029 171.781C64.2325 170.57 63.0865 169.155 62.9896 167.687C62.8978 166.304 63.7589 164.898 65.4789 163.622C69.184 160.873 73.3343 158.611 77.7971 156.907C81.3609 155.561 85.3378 154.815 89.1843 154.094C90.1262 153.917 91.0683 153.74 92.0037 153.555C92.093 153.539 92.184 153.532 92.2752 153.532Z" fill="black"/>
<path d="M133.244 74.7363C133.244 74.5632 133.252 74.3902 133.257 74.2177C133.293 73.4595 133.281 72.7002 133.221 71.9432C132.97 69.0289 131.875 66.2169 130.038 63.7668C128.201 61.3169 125.682 59.3081 122.712 57.9268C119.827 56.6078 116.6 55.9513 113.339 56.02C110.078 56.0886 106.891 56.8803 104.083 58.3192C97.4537 61.5805 93.2926 67.0728 92.0512 74.202C90.4391 83.459 98.0249 92.5177 108.96 94.3948C110.432 94.65 111.93 94.7797 113.432 94.7825C122.635 94.7825 130.148 89.6922 132.436 81.4605C132.79 80.0747 133.058 78.6735 133.241 77.2629C133.337 76.6279 133.431 75.9931 133.543 75.3613C133.558 75.2749 133.553 75.1865 133.528 75.1018C133.503 75.0172 133.458 74.9377 133.397 74.8683C133.353 74.8183 133.302 74.7738 133.244 74.7363ZM124.974 75.5047L124.959 75.7694C124.944 76.055 124.923 76.4403 124.886 76.8257C124.504 80.8376 122.81 83.9594 119.99 85.8523C117.482 87.536 114.201 88.1317 110.498 87.5783C108.564 87.2284 106.732 86.5439 105.111 85.5657C103.49 84.5875 102.112 83.3354 101.062 81.885C100.104 80.5634 99.4886 79.0773 99.2587 77.5291C99.0287 75.9808 99.1898 74.4076 99.7303 72.9187C101.125 68.7886 103.186 64.7987 108.775 63.5768C110.124 63.2748 111.511 63.1185 112.904 63.1113C115.545 63.0564 118.127 63.7846 120.225 65.1754C123.36 67.3261 125.047 70.9947 124.974 75.5019V75.5047Z" fill="black"/>
</svg>
