<svg width="220" height="220" viewBox="0 0 220 220" fill="none" xmlns="http://www.w3.org/2000/svg">
<g clip-path="url(#clip0_18_151)">
<path d="M128.483 180.848C113.733 180.848 98.9835 180.776 84.2351 180.871C72.3775 180.947 60.5252 181.29 48.6689 181.372C45.3333 181.372 42.0022 181.122 38.7038 180.626C31.5987 179.608 28.7717 175.409 31.1378 168.636C32.7558 164.099 34.8703 159.753 37.4427 155.678C48.3416 138.226 64.1997 126.893 83.2049 119.592C93.5225 115.546 104.488 113.393 115.574 113.237C132.148 113.093 147.405 117.29 160.434 128.197C169.329 135.541 176.598 144.647 181.782 154.937C183.225 157.813 184.851 160.622 186.007 163.611C187.117 166.37 187.892 169.252 188.318 172.194C188.887 176.602 186.425 179.525 182.014 180.079C178.937 180.496 175.836 180.728 172.73 180.774C157.981 180.841 143.231 180.805 128.483 180.805V180.848ZM176.938 170.09C176.995 169.621 176.99 169.146 176.924 168.679C172.226 156.508 165.734 145.507 155.705 136.891C147.968 130.243 139.289 125.46 128.98 124.162C117.1 122.668 105.329 122.981 93.7172 126.245C71.7496 132.419 54.2225 144.574 42.22 164.169C40.8543 166.398 39.7703 168.798 38.5145 171.19C38.8961 171.398 39.2944 171.575 39.705 171.719C43.8148 172.62 47.913 172.09 52.0578 171.859C60.6715 171.377 69.3087 171.17 77.9372 171.126C106.166 170.98 134.395 170.991 162.625 170.857C167.323 170.832 172.014 170.364 176.94 170.09H176.938Z" fill="black"/>
<path d="M112.385 37.7457C123.749 37.4696 133.243 42.8807 140.452 52.7147C142.151 55.0333 144.201 57.186 145.442 59.729C148.215 65.413 150.512 71.2521 149.038 77.8861C147.654 84.1156 145.85 90.1142 141.829 95.2204C134.679 104.291 125.563 109.898 113.912 111.292C103.425 112.548 93.4531 110.998 84.1429 106.075C74.5537 101.006 69.0978 92.8016 67.1171 82.2607C64.1358 66.3926 72.4571 52.1612 85.5867 44.5946C93.532 40.0145 102.112 37.7061 112.385 37.7457ZM137.285 69.9844C137.806 65.9841 136.201 62.7894 133.714 59.8782C132.744 58.7421 131.867 57.5233 130.857 56.4248C127.201 52.4487 123.033 49.3031 117.488 48.4706C109.715 47.1872 101.734 48.2308 94.5561 51.4698C85.5834 55.5863 78.8899 61.8622 77.3477 72.2976C75.5488 84.4711 81.8461 95.3654 93.0454 98.9619C99.7564 101.054 106.843 101.669 113.815 100.764C123.346 99.6755 134.566 89.9011 136.081 79.8688C136.576 76.5874 136.889 73.278 137.285 69.9811V69.9844Z" fill="black"/>
</g>
<defs>
<clipPath id="clip0_18_151">
<rect width="159" height="144.451" fill="white" transform="translate(30 37.2745)"/>
</clipPath>
</defs>
</svg>
