<svg width="31" height="34" viewBox="0 0 31 34" fill="none" xmlns="http://www.w3.org/2000/svg">
<path d="M12.1304 7.56519H22.913V17" stroke="black" stroke-width="2" stroke-linecap="round" stroke-linejoin="round"/>
<path d="M16.1738 11.6087L12.1304 7.56521L16.1738 3.52173" stroke="black" stroke-width="2" stroke-linecap="round" stroke-linejoin="round"/>
<path d="M9.43491 31.8261C10.9237 31.8261 12.1306 30.6192 12.1306 29.1305C12.1306 27.6417 10.9237 26.4348 9.43491 26.4348C7.94614 26.4348 6.73926 27.6417 6.73926 29.1305C6.73926 30.6192 7.94614 31.8261 9.43491 31.8261Z" stroke="black" stroke-width="2" stroke-linecap="round" stroke-linejoin="round"/>
<path d="M25.6087 31.8261C27.0975 31.8261 28.3044 30.6192 28.3044 29.1305C28.3044 27.6417 27.0975 26.4348 25.6087 26.4348C24.12 26.4348 22.9131 27.6417 22.9131 29.1305C22.9131 30.6192 24.12 31.8261 25.6087 31.8261Z" stroke="black" stroke-width="2" stroke-linecap="round" stroke-linejoin="round"/>
<path d="M29.652 8.91296L26.9564 22.3912H8.08679L5.39113 2.17383H1.34766" stroke="black" stroke-width="2" stroke-linecap="round" stroke-linejoin="round"/>
</svg>
