<svg width="220" height="220" viewBox="0 0 220 220" fill="none" xmlns="http://www.w3.org/2000/svg">
<path d="M79.1078 88.6121C80.0336 87.4277 80.9633 86.2465 81.8969 85.069C84.2798 82.0521 86.7429 78.9319 89.0637 75.7838C92.0618 71.7139 91.8573 69.8354 88.0242 66.2229C87.7053 65.9231 87.369 65.6415 87.032 65.3611C86.7733 65.1434 86.5094 64.9255 86.2559 64.6975L83.2565 61.9846C80.3736 59.3773 77.3924 56.6811 74.4849 54.0059C72.2758 51.9736 70.0751 49.9335 67.8828 47.8852C64.9546 45.1603 61.9268 42.3416 58.9184 39.6012C55.555 36.5326 53.6294 36.5379 50.3448 39.6232C47.2154 42.562 44.0557 45.5723 41.0001 48.4826C38.2679 51.0852 35.5309 53.6825 32.7893 56.2752C31.5863 57.3938 30.6285 58.7498 29.9764 60.2567C29.3242 61.7635 28.9918 63.3889 29.0002 65.0305C29.0234 67.6078 29.3506 70.1734 29.9749 72.6742C31.5616 79.4981 34.9658 85.6167 38.2588 91.5374L39.0738 93.0061C47.6171 108.434 56.8615 120.743 67.3433 130.635C69.2838 132.465 71.1207 134.49 72.8995 136.449C75.271 139.183 77.8272 141.752 80.5502 144.137C88.5268 150.8 97.2819 157.568 107.313 164.829C115.571 170.806 122.837 175.131 130.172 178.442C135.534 180.939 141.371 182.258 147.287 182.309C149.822 182.308 152.349 182.051 154.832 181.541L155.224 181.46C158.993 180.691 162.89 179.896 166.17 177.271C167.799 175.968 169.576 174.772 171.294 173.613C172.195 173.006 173.096 172.399 173.982 171.773C174.775 171.214 175.588 170.675 176.4 170.136C178.405 168.88 180.306 167.465 182.085 165.904C187.004 161.341 185.973 158.181 182.53 154.264C178.765 149.982 175.091 145.484 171.534 141.137C170.118 139.405 168.7 137.675 167.278 135.949C166.16 134.596 165.049 133.239 163.945 131.874C161.81 129.251 159.605 126.538 157.353 123.933C153.074 118.983 151.263 118.824 145.952 122.933C142.28 125.776 138.578 128.695 134.991 131.521C132.733 133.301 130.473 135.078 128.21 136.853C127.53 137.386 126.817 137.881 126.126 138.361L125.694 138.661C124.311 137.217 122.931 135.775 121.555 134.332C107.519 119.661 93.0171 104.497 77.1627 90.9722C77.3251 90.7783 77.4816 90.5922 77.631 90.4132C78.1821 89.7523 78.655 89.189 79.1078 88.6121ZM69.9339 92.9273C79.7656 103.474 89.5917 114.027 99.4125 124.586L113.284 139.491C113.866 140.119 114.459 140.736 115.051 141.354C116.046 142.387 117.073 143.463 118.031 144.554C121.118 148.071 124.676 148.514 129.929 146.03C131.586 145.161 133.134 144.098 134.54 142.864C135.016 142.48 135.49 142.096 135.97 141.728C139.633 138.92 143.279 136.093 146.998 133.212L151.073 130.054L175.98 160.422C174.704 161.312 173.424 162.234 172.181 163.132C168.739 165.722 165.142 168.101 161.411 170.257C158.453 171.883 154.721 172.403 151.151 172.796C143.583 173.631 136.699 172.345 130.681 168.98L129.516 168.328C123.553 164.995 117.386 161.549 111.729 157.604C103.919 152.24 96.4061 146.457 89.2229 140.281C85.728 137.129 82.3941 133.802 79.2339 130.315C76.9823 127.912 74.6557 125.428 72.2482 123.102C66.0478 117.117 60.1991 109.881 53.8434 100.328C48.2024 91.8529 43.8823 82.969 40.3991 75.3977C39.0751 72.5184 37.7821 69.0949 38.2252 65.5295C38.3136 64.1452 38.791 62.8142 39.6029 61.6888C43.4535 57.323 47.4883 52.982 51.39 48.7848C52.5012 47.5901 53.6116 46.3943 54.7211 45.197C63.5095 55.1244 73.102 64.4549 82.1983 73.078C79.294 77.0585 75.9071 80.6644 72.115 83.813C71.8776 84.0068 71.633 84.191 71.3885 84.3764C70.9089 84.7272 70.4488 85.1041 70.0102 85.505C67.4417 87.9359 67.4184 90.227 69.9339 92.9247V92.9273Z" fill="black"/>
<path d="M156.768 50.5278C143.719 41.9926 128.165 37.7008 107.821 37.0257C100.099 36.7189 87.8343 39.2094 80.8958 41.6772C79.6955 42.1025 78.564 42.701 77.5375 43.4537C76.0685 44.5429 75.6435 46.0502 76.4016 47.485C77.2522 49.0943 78.6836 48.6719 79.5387 48.4206C79.7049 48.3716 79.8711 48.3225 80.0348 48.2838C89.6143 46.0492 97.0212 45.0537 104.035 45.0537H104.134C111.834 45.0993 119.505 46.0065 127.002 47.7589C144.813 51.7913 158.722 60.3383 169.524 73.8885C179.26 86.0982 182.854 99.9494 180.513 116.233C179.952 120.216 178.869 124.109 177.292 127.81C176.218 130.33 176.088 132.438 176.88 134.436C177.05 134.991 177.34 135.504 177.73 135.935C178.12 136.367 178.6 136.707 179.136 136.933C179.454 137.044 179.788 137.101 180.125 137.1C180.885 137.075 181.627 136.852 182.275 136.454C184.102 135.413 185.409 133.769 186.388 131.28C192.296 116.252 192.605 101.409 187.305 87.1621C181.872 72.5505 171.598 60.2264 156.768 50.5278Z" fill="black"/>
<path d="M154.01 111.521C154.677 112.425 155.701 113.545 157.236 113.545C157.502 113.544 157.767 113.513 158.025 113.451C159.981 112.992 160.336 111.074 160.506 110.153C161.307 105.757 160.748 101.223 158.903 97.1529C157.428 93.78 155.998 90.8418 154.532 88.1698C150.288 80.4318 145.805 75.077 140.424 71.3185C129.377 63.6005 119.985 59.8976 109.971 59.3104C105.184 59.0307 101.375 59.6384 97.9869 61.2251C95.7994 62.2503 95.8569 63.7861 96.0859 64.6104C96.5736 66.3663 98.2204 66.2984 99.2043 66.2551C99.9306 66.2247 100.704 66.1603 101.567 66.0614C102.872 65.909 104.175 65.7454 105.479 65.5813L107.101 65.3794C112.256 65.4363 117.557 66.7356 123.777 69.4631C134.852 74.3205 142.507 81.1468 147.179 90.33C147.947 91.8391 148.662 93.4146 149.354 94.9385C149.835 95.998 150.316 97.0582 150.818 98.1074C152.108 100.555 152.696 103.311 152.517 106.072C152.316 108.011 152.849 109.955 154.01 111.521Z" fill="black"/>
</svg>
